<svg width="230" height="60" viewBox="0 0 230 60" fill="none" xmlns="http://www.w3.org/2000/svg">
<g filter="url(#filter0_d_0_1)">
<path d="M63.4 36.048H61.368V30.992H55.512V29.184H61.368V24.368H63.4V36.048ZM54.04 36.048H52.008V24.368H54.04V36.048ZM79.9903 36H77.5423L75.7983 33.072H70.2943L71.2543 31.424H74.8223L72.2303 27.072L66.9503 36H64.6303L71.3183 24.864C71.5583 24.464 71.8623 24.208 72.3103 24.208C72.7583 24.208 73.0463 24.464 73.2863 24.864L79.9903 36ZM94.9224 36H92.0424L89.0984 32.768H84.7464V30.976H89.5944C91.0504 30.976 91.8184 30.144 91.8184 28.64C91.8184 27.136 90.9864 26.4 89.5944 26.4H83.2584V36H81.2424V24.368H89.5944C92.2504 24.368 93.8184 26.016 93.8184 28.608C93.8184 30.528 92.9224 31.888 91.4184 32.464L94.9224 36ZM110.553 36H108.105L106.361 33.072H100.857L101.817 31.424H105.385L102.793 27.072L97.5128 36H95.1928L101.881 24.864C102.121 24.464 102.425 24.208 102.873 24.208C103.321 24.208 103.609 24.464 103.849 24.864L110.553 36ZM124.493 36H121.389L114.877 30.88C114.525 30.608 114.461 30.352 114.461 30.032C114.461 29.68 114.557 29.424 114.973 29.104L121.133 24.368H124.253L116.637 30.048L124.493 36ZM113.837 36H111.805V24.368H113.837V36ZM131.565 36H129.533V26.4H125.117V24.368H135.981V26.4H131.565V36ZM147.721 36H137.321V24.368H147.705V26.4H139.337V33.968H147.721V36ZM147.273 30.944H140.825V29.232H147.273V30.944ZM163.141 36H160.261L157.317 32.768H152.965V30.976H157.813C159.269 30.976 160.037 30.144 160.037 28.64C160.037 27.136 159.205 26.4 157.813 26.4H151.477V36H149.461V24.368H157.813C160.469 24.368 162.037 26.016 162.037 28.608C162.037 30.528 161.141 31.888 159.637 32.464L163.141 36ZM174.26 35.712L166.084 27.488V36H164.148V25.44C164.148 24.688 164.548 24.224 165.188 24.224C165.492 24.224 165.748 24.336 166.052 24.64L174.26 32.784V24.272H176.196V34.928C176.196 35.696 175.78 36.144 175.188 36.144C174.852 36.144 174.548 36 174.26 35.712ZM185.572 36H183.54V31.584L177.364 24.368H180.1L184.628 29.728L189.172 24.368H191.764L185.572 31.584V36ZM205.665 36H202.561L196.049 30.88C195.697 30.608 195.633 30.352 195.633 30.032C195.633 29.68 195.729 29.424 196.145 29.104L202.305 24.368H205.425L197.809 30.048L205.665 36ZM195.009 36H192.977V24.368H195.009V36Z" fill="#FDFDFD" style="fill:#FDFDFD;fill:color(display-p3 0.9917 0.9917 0.9917);fill-opacity:1;"/>
<g filter="url(#filter1_d_0_1)">
<path d="M30.0344 17.4828L38.0689 19.9656L43.0344 26.4656V34.5L38.0689 41L30.0344 43.4828L22 41L17.0344 34.5V26.4656L22 19.9656L30.0344 17.4828Z" fill="#D9D9D9" style="fill:#D9D9D9;fill:color(display-p3 0.8510 0.8510 0.8510);fill-opacity:1;"/>
</g>
<g filter="url(#filter2_d_0_1)">
<path d="M27.5907 23.2475C28.7901 21.6308 31.2099 21.6308 32.4093 23.2475L33.4339 24.6285C33.7745 25.0875 34.2391 25.4397 34.7731 25.6436L36.5499 26.322C38.3287 27.0012 39.033 29.1444 38.0037 30.7463L36.8476 32.5456C36.5547 33.0015 36.3907 33.5282 36.3731 34.0698L36.3073 36.0952C36.2432 38.0658 34.328 39.4399 32.4406 38.8693L30.8682 38.3939C30.3021 38.2227 29.6979 38.2227 29.1318 38.3939L27.5594 38.8693C25.672 39.4399 23.7568 38.0658 23.6927 36.0952L23.6269 34.0698C23.6093 33.5282 23.4453 33.0015 23.1524 32.5456L21.9963 30.7463C20.967 29.1444 21.6713 27.0012 23.4501 26.322L25.2269 25.6436C25.7609 25.4397 26.2255 25.0875 26.5661 24.6285L27.5907 23.2475Z" fill="black" style="fill:black;fill-opacity:1;"/>
<path d="M27.9922 23.5454C28.9917 22.1982 31.0083 22.1982 32.0078 23.5454L33.0323 24.9264C33.4297 25.4619 33.9718 25.8728 34.5948 26.1107L36.3715 26.7891C37.8539 27.3551 38.4408 29.1411 37.583 30.4761L36.4269 32.2753C36.0852 32.8072 35.8939 33.4217 35.8734 34.0536L35.8075 36.0789C35.7541 37.7212 34.1581 38.8662 32.5853 38.3907L31.0129 37.9153C30.3524 37.7156 29.6476 37.7156 28.9871 37.9153L27.4147 38.3907C25.8419 38.8662 24.2459 37.7212 24.1925 36.0789L24.1266 34.0536C24.1061 33.4217 23.9148 32.8072 23.5731 32.2753L22.417 30.476C21.5592 29.1411 22.1461 27.3551 23.6285 26.7891L25.4052 26.1107C26.0282 25.8728 26.5703 25.4619 26.9677 24.9264L27.9922 23.5454Z" stroke="black" style="stroke:black;stroke-opacity:1;"/>
</g>
</g>
<defs>
<filter id="filter0_d_0_1" x="-4" y="0" width="238" height="68" filterUnits="userSpaceOnUse" color-interpolation-filters="sRGB">
<feFlood flood-opacity="0" result="BackgroundImageFix"/>
<feColorMatrix in="SourceAlpha" type="matrix" values="0 0 0 0 0 0 0 0 0 0 0 0 0 0 0 0 0 0 127 0" result="hardAlpha"/>
<feOffset dy="4"/>
<feGaussianBlur stdDeviation="2"/>
<feComposite in2="hardAlpha" operator="out"/>
<feColorMatrix type="matrix" values="0 0 0 0 0 0 0 0 0 0 0 0 0 0 0 0 0 0 0.25 0"/>
<feBlend mode="normal" in2="BackgroundImageFix" result="effect1_dropShadow_0_1"/>
<feBlend mode="normal" in="SourceGraphic" in2="effect1_dropShadow_0_1" result="shape"/>
</filter>
<filter id="filter1_d_0_1" x="13.0344" y="17.4828" width="34" height="34" filterUnits="userSpaceOnUse" color-interpolation-filters="sRGB">
<feFlood flood-opacity="0" result="BackgroundImageFix"/>
<feColorMatrix in="SourceAlpha" type="matrix" values="0 0 0 0 0 0 0 0 0 0 0 0 0 0 0 0 0 0 127 0" result="hardAlpha"/>
<feOffset dy="4"/>
<feGaussianBlur stdDeviation="2"/>
<feComposite in2="hardAlpha" operator="out"/>
<feColorMatrix type="matrix" values="0 0 0 0 0 0 0 0 0 0 0 0 0 0 0 0 0 0 0.25 0"/>
<feBlend mode="normal" in2="BackgroundImageFix" result="effect1_dropShadow_0_1"/>
<feBlend mode="normal" in="SourceGraphic" in2="effect1_dropShadow_0_1" result="shape"/>
</filter>
<filter id="filter2_d_0_1" x="17.519" y="22.035" width="24.9619" height="24.9645" filterUnits="userSpaceOnUse" color-interpolation-filters="sRGB">
<feFlood flood-opacity="0" result="BackgroundImageFix"/>
<feColorMatrix in="SourceAlpha" type="matrix" values="0 0 0 0 0 0 0 0 0 0 0 0 0 0 0 0 0 0 127 0" result="hardAlpha"/>
<feOffset dy="4"/>
<feGaussianBlur stdDeviation="2"/>
<feComposite in2="hardAlpha" operator="out"/>
<feColorMatrix type="matrix" values="0 0 0 0 0 0 0 0 0 0 0 0 0 0 0 0 0 0 0.25 0"/>
<feBlend mode="normal" in2="BackgroundImageFix" result="effect1_dropShadow_0_1"/>
<feBlend mode="normal" in="SourceGraphic" in2="effect1_dropShadow_0_1" result="shape"/>
</filter>
</defs>
</svg>
